<svg xmlns="http://www.w3.org/2000/svg" version="1.1" viewBox="0 0 2048 731" width="1280" height="1280">
<path transform="translate(1272,181)" d="m0 0h34l22 3 21 6 25 10 14 8 19 14 13 12 10 12 11 17 9 17 6 16 6 26 2 21v12l-2 24-5 23-6 16-10 21-11 16-9 11-8 9-11 9-13 9-17 10-19 8-27 7-13 2-32 1-19-1-25-5-18-6-19-9-15-10-14-11-15-15-13-17-9-15-8-17-7-21-4-22-1-11v-20l3-26 4-14 7-19 11-21 10-14 13-15 11-10 13-10 16-10 21-10 20-6 21-4zm14 40-20 2-17 4-21 8-11 6-16 12-7 6-11 14-9 13-7 14-5 15-4 21-1 7v17l4 25 6 18 8 17 9 12 9 10 9 8 17 12 15 7 16 6 20 4 8 1h22l24-4 22-8 17-9 19-14 8-8 13-17 9-21 5-15 2-11 2-19-1-14-3-21-7-21-8-16-11-13-11-12-11-10-14-9-15-7-15-5-16-3z" fill="#18216d"/>
<path transform="translate(456,182)" d="m0 0h65l63 1 22 2 21 5 21 8 14 8 11 8 9 8 11 14 8 16 5 14 4 21v25l-5 25-7 16-7 12-11 13-5 6-13 9-16 8-4 1 4 7 39 54 14 20 12 16 1 2v7l-6 9-4 2h-26l-7-6-11-16-26-36-12-17-14-20-6-8-109-1 1 48-1 55-41 1-2-4v-111l1-28 6-1 139-1 18-4 16-6 11-6 10-8 7-9 4-8 4-14 2-11v-17l-3-16-5-13-8-12-10-9-14-8-14-5-15-3-13-1-136-1v-33l1-7z" fill="#18216d"/>
<path transform="translate(1458,182)" d="m0 0h44l4 4 11 25 16 35 11 25 16 36 30 67 12 27 13 29 8 18 3 5 2 1 3-10 16-35 11-25 13-29 16-36 14-31 13-29 20-45 13-28 3-3h43l-2 6-7 15-38 86-17 38-13 29-18 40-8 18-15 34-16 36-15 32-3 2h-33l-3-4-5-12-16-35-15-34-13-29-16-36-18-40-12-27-18-40-10-23-12-28-11-25z" fill="#18216d"/>
<path transform="translate(170,179)" d="m0 0 14 1 8 1 23 1 195 1 1 1v39h-112l-1 2-1 44v249l-1 1h-40l-2-1-1-295-90-1-19-1-2-3 1-10 3-12 4-5z" fill="#18216d"/>
<path transform="translate(1819,181)" d="m0 0 33 1 10 1v334l-1 1-40 1-1-1-1-191z" fill="#18216d"/>
<path transform="translate(957,199)" d="m0 0h10l12 2 10 5 7 7 8 16 1 4 1 20 5 2 11 9 10 9 7 8 10 14 8 15 8 24 4 21 1 8v12l-3 11-3 3-5-2-2-3-1-25-3-19-5-16-9-19-8-12-9-11-12-12-8-7-3-1-7 8-10 7-7 3-7 1h-10l-10-2-11-6-8-8-7-13-2-14 2-10 5-10 9-10 9-6 5-2zm1 9-10 3-8 6-6 10-2 9 1 11 5 10 6 7 10 6 4 1h9l9-3 10-9 5-8 2-9-1-11-4-10-8-8-8-4-6-1z" fill="#D4A8BF"/>
<path transform="translate(917,309)" d="m0 0h18l15 3 12 6 10 9 7 8 6 10 4 12 1 7v16l-4 16-6 11-11 12-11 8-12 5-11 2h-19l-11-2-14-7-12-11-8-11-6-12-2-7-1-17 2-12 6-14 10-13 10-9 16-8zm1 11-12 4-10 6-11 11-7 14-2 6-1 7 1 16 4 12 7 9 7 7 9 6 11 5 3 1h19l11-4 11-7 7-6 7-10 4-9 1-5v-22l-4-12-6-9-10-10-10-6-12-4z" fill="#D4A8BF"/>
<path transform="translate(867,245)" d="m0 0h5l2 5-5 4-12 7-13 11-11 11-9 11-9 14-6 10-7 17-5 20-1 9 13 2 12 6 5 4 7 11 3 8 1 14-2 10-5 10-9 10-8 5-11 3h-15l-10-3-10-6-7-8-7-14-1-5v-9l3-11 6-10 8-8 12-7 3-1 2-17 6-22 7-17 9-15 11-14 9-10 14-11 13-8zm-81 131-8 4-8 7-5 11-1 10 2 8 6 10 9 8 7 3h14l10-5 7-7 4-7 1-4v-15l-4-10-7-8-6-4-3-1z" fill="#D4A8BF"/>
<path transform="translate(1018,426)" d="m0 0h9l13 3 10 6 7 7 6 11 2 7v16l-3 10-7 11-9 7-11 5-7 1h-10l-8-2-9-5-5-4-1-2-5 2-12 6-21 5-8 1h-42l-16-3-20-7-19-10-8-7 2-5 4-2 15 9 12 6 18 6 10 2 28 1 16-1 17-4 18-6-1-11v-21l5-12 7-9 8-6 9-4zm0 12-10 3-9 8-5 10-1 4v11l4 10 6 8 9 6 6 2h10l10-4 8-6 6-9 1-3v-20l-4-8-7-7-8-4-5-1zm-26 55 1 2z" fill="#D4A8BF"/>
<path transform="translate(920,343)" d="m0 0h12l11 4 8 7 4 9v19l-5 9-9 7-6 3-11 1-9-2-10-7-6-9-2-6v-12l4-10 5-6 10-6z" fill="#D4A8BF"/>
<path transform="translate(790,387)" d="m0 0h11l6 3 5 5 2 5v10l-3 7-8 6-6 2-10-1-5-3-5-8v-13l3-6 7-6z" fill="#D4A8BF"/>
<path transform="translate(962,220)" d="m0 0 9 1 8 6 3 8-1 10-4 6-6 5-5 2h-7l-7-3-6-7-2-5v-8l6-9 8-5z" fill="#D4A8BF"/>
<path transform="translate(1018,450)" d="m0 0h12l8 5 3 4 1 3v11l-4 7-6 5-3 1h-13l-6-4-4-7-1-4v-7l3-6 5-5z" fill="#D4A8BF"/>
</svg>